<svg xmlns="http://www.w3.org/2000/svg" width="642" height="604" viewBox="47 182 640 610"><metadata id="metadata7">image/svg+xmlMan silhouetteMan silhouette people person head shoulders face</metadata><g id="layer1"><path d="m46.4286 778.046997c0-10.653015 17.738598-102.203003 20.745197-107.067993 1.071205-1.733032 3.731903-12.960022 5.912704-24.947998 5.087296-27.966003 14.466599-58.013 19.987495-64.031982 2.373306-2.588013 23.671005-8.738037 47.327995-13.66803 72.675003-15.14502 104.705002-26.810974 120.518997-43.893982 7.537018-8.142029 18.937012-16.628021 25.333008-18.858002 10.161011-3.542023 11.627991-5.796021 11.627991-17.864014 0-7.595001-2.320984-17.140991-5.158997-21.212006 -2.837006-4.071991-6.406982-15.002991-7.932983-24.291992 -1.526001-9.289001-5.960022-19.910004-9.852997-23.602997 -3.894012-3.692017-7.07901-8.404999-7.07901-10.472015 0-2.067993-3.799988-8.898987-8.444-15.181 -7.203003-9.741974-8.514008-16.477997-8.915009-45.821991 -0.774994-56.694 4.085007-82.635986 19.960999-106.554993 22.417023-33.77301 65.708008-57.164001 105.994019-57.272003 15.742004-0.041992 22.355988 1.783005 28.966003 7.992996 4.991974 4.689011 16.722992 9.337006 28.112 11.137009 22.659973 3.582001 43.039978 17.972 52.934998 37.377991 4.973999 9.756012 6.562988 22.119995 6.567993 51.115997 0.002991 21.442993 1.653992 39.266022 3.757996 40.56601 10.205994 6.307983 0.684998 49.886993-15.325012 70.149994 -6.019989 7.619019-10.983002 16.90799-11.027985 20.641998 -0.04599 3.733002-3.423004 14.149994-7.506012 23.14801 -13.561005 29.884003-8.893982 59.460999 10.425018 66.080994 3.600006 1.233978 12.457001 9.844025 19.681 19.133026 7.225006 9.289978 17.358002 17.844971 22.519012 19.011963 5.159973 1.166016 28.302979 9.554993 51.427002 18.643005 23.125 9.087036 43.171997 16.522034 44.549988 16.522034 1.377014 0 9.820984 4.643982 18.761963 10.320984 15.980042 10.143982 24.123047 23.684998 24.123047 40.110962 0 4.416016 3.492981 14.720032 7.760986 22.897034 6.869019 13.158997 11.544006 38.393982 21.007019 113.383972l2.011963 15.95105 -319.385986 0 -319.386402 0 0-9.444031 0 0z" id="path2396" fill="none" stroke="#000" stroke-width="6px"/></g></svg>

