<svg id="Capa_1" data-name="Capa 1" xmlns="http://www.w3.org/2000/svg" viewBox="0 0 86.14 114.05"><defs><style>.cls-1{fill:#fff;stroke:#59595b;stroke-miterlimit:10;stroke-width:2px;}</style></defs><title>man_icon2Mesa de trabajo 9</title><path class="cls-1" d="M68.29,63.56C56.7,59.38,53,55.86,53,48.31a5.37,5.37,0,0,1,.32-2c.91-2.33,3.5-2.59,4.77-9.37.65-3.44,3.77-.06,4.37-7.91,0-3.13-1.71-3.91-1.71-3.91s.87-4.64,1.21-8.2C62.38,12.48,59.36,1,43.27,1h-.41C26.78,1,23.77,12.48,24.19,16.93c.34,3.57,1.21,8.2,1.21,8.2s-1.71.78-1.71,3.91c.6,7.86,3.72,4.47,4.37,7.91,1.27,6.77,3.86,7,4.77,9.37a5.37,5.37,0,0,1,.32,2c0,7.55-3.7,11.08-15.29,15.25S1,72,1,74.94V113H85.14V74.94c0-2.92-5.23-7.19-16.85-11.38Zm0,0"/></svg>