<svg id="Overview" xmlns="http://www.w3.org/2000/svg" viewBox="0 0 46.69 16.34"><defs><style>.cls-1,.cls-3{fill:#fff;}.cls-2{fill:#1d1e1c;}.cls-3{stroke:#1d1e1c;stroke-linejoin:round;stroke-width:1.38px;}.cls-3,.cls-5{stroke-linecap:round;}.cls-4{fill:#e20613;}.cls-5{fill:none;stroke:#212222;stroke-miterlimit:10;stroke-width:1.73px;}</style></defs><title>icon_3</title><g id="_Grupo_" data-name="&lt;Grupo&gt;"><path class="cls-1" d="M30.92,15.77V.58H44a2.13,2.13,0,0,1,2.13,2.13V13.63A2.14,2.14,0,0,1,44,15.77Z"/><path class="cls-2" d="M44,1.15a1.56,1.56,0,0,1,1.56,1.56V13.63A1.56,1.56,0,0,1,44,15.19H31.5v-14H44M44,0H30.35V16.34H44a2.71,2.71,0,0,0,2.71-2.71V2.71A2.71,2.71,0,0,0,44,0Z"/></g><polyline id="_Trazado_" data-name="&lt;Trazado&gt;" class="cls-3" points="35.04 8.32 37.13 10.58 42 5.76"/><path id="_Trazado_2" data-name="&lt;Trazado&gt;" class="cls-4" d="M0,13.63V2.71A2.72,2.72,0,0,1,2.71,0H31.43V16.34H2.71A2.71,2.71,0,0,1,0,13.63Z"/><path id="_Trazado_3" data-name="&lt;Trazado&gt;" class="cls-1" d="M2.24,13V3.31A1.12,1.12,0,0,1,3.36,2.18H29.27v12H3.36A1.12,1.12,0,0,1,2.24,13Z"/><line class="cls-5" x1="7.81" y1="10.94" x2="7.81" y2="12.29"/><line class="cls-5" x1="11.58" y1="5.55" x2="11.58" y2="12.29"/><line class="cls-5" x1="15.35" y1="7.17" x2="15.35" y2="12.29"/><line class="cls-5" x1="19.13" y1="3.93" x2="19.13" y2="12.29"/><line class="cls-5" x1="22.9" y1="9.32" x2="22.9" y2="12.29"/></svg>