<svg id="Overview" xmlns="http://www.w3.org/2000/svg" xmlns:xlink="http://www.w3.org/1999/xlink" viewBox="0 0 30.38 30.38"><defs><style>.cls-1,.cls-3{fill:none;}.cls-2{clip-path:url(#clip-path);}.cls-3{stroke:#fff;stroke-linecap:round;stroke-linejoin:round;stroke-width:0.97px;}.cls-4{fill:#222323;}.cls-5{clip-path:url(#clip-path-2);}</style><clipPath id="clip-path"><path class="cls-1" d="M0,15.19A15.19,15.19,0,1,0,15.19,0,15.19,15.19,0,0,0,0,15.19"/></clipPath><clipPath id="clip-path-2"><path id="_Trazado_de_recorte_" data-name="&lt;Trazado de recorte&gt;" class="cls-1" d="M30.38,15.19A15.19,15.19,0,1,1,15.19,0,15.19,15.19,0,0,1,30.38,15.19Z"/></clipPath></defs><title>icon_1</title><g class="cls-2"><line class="cls-3" x1="15.24" y1="15.19" x2="24.01" y2="23.95"/></g><path class="cls-3" d="M18.33,15.19a3.14,3.14,0,1,1-3.14-3.14A3.14,3.14,0,0,1,18.33,15.19Z"/><path class="cls-3" d="M21.64,15.19a6.45,6.45,0,1,1-6.45-6.45A6.45,6.45,0,0,1,21.64,15.19Z"/><path class="cls-3" d="M9.56,15.19a.83.83,0,1,1-.82-.82A.82.82,0,0,1,9.56,15.19Z"/><path class="cls-3" d="M24,9.56a.82.82,0,1,1-.82-.82A.82.82,0,0,1,24,9.56Z"/><path class="cls-3" d="M20,24.17a.82.82,0,1,1-1.64,0,.82.82,0,0,1,1.64,0Z"/><g id="_Grupo_" data-name="&lt;Grupo&gt;"><path id="_Trazado_" data-name="&lt;Trazado&gt;" class="cls-4" d="M30.38,15.19A15.19,15.19,0,1,1,15.19,0,15.19,15.19,0,0,1,30.38,15.19Z"/><circle id="_Trazado_2" data-name="&lt;Trazado&gt;" class="cls-3" cx="15.19" cy="15.19" r="9.8"/></g><g class="cls-5"><line class="cls-3" x1="15.24" y1="15.19" x2="24.01" y2="23.95"/></g><path id="_Trazado_3" data-name="&lt;Trazado&gt;" class="cls-3" d="M18.33,15.19a3.14,3.14,0,1,1-3.14-3.14A3.14,3.14,0,0,1,18.33,15.19Z"/><path id="_Trazado_4" data-name="&lt;Trazado&gt;" class="cls-3" d="M21.64,15.19a6.45,6.45,0,1,1-6.45-6.46A6.45,6.45,0,0,1,21.64,15.19Z"/><path class="cls-3" d="M9.56,15.19a.83.83,0,1,1-.82-.82A.82.82,0,0,1,9.56,15.19Z"/><path class="cls-3" d="M24,9.56a.82.82,0,1,1-.82-.83A.82.82,0,0,1,24,9.56Z"/><path class="cls-3" d="M20,24.17a.82.82,0,1,1-.82-.82A.82.82,0,0,1,20,24.17Z"/></svg>