<svg id="Overview" xmlns="http://www.w3.org/2000/svg" xmlns:xlink="http://www.w3.org/1999/xlink" viewBox="0 0 22.05 21.94"><defs><style>.cls-1{fill:#e30613;}.cls-2{fill:url(#Degradado_sin_nombre_21);}.cls-3,.cls-4{fill:none;stroke:#fff;}.cls-3{stroke-linejoin:round;stroke-width:1.18px;}.cls-4{stroke-linecap:round;stroke-miterlimit:10;stroke-width:1.19px;}.cls-5{fill:#fff;}</style><radialGradient id="Degradado_sin_nombre_21" cx="-54.96" cy="29.65" r="9.25" gradientTransform="translate(65.29 -18.08) scale(0.98 0.98)" gradientUnits="userSpaceOnUse"><stop offset="0" stop-color="#fff" stop-opacity="0"/><stop offset="0.34" stop-color="#fff" stop-opacity="0.42"/><stop offset="0.4" stop-color="#fff" stop-opacity="0.5"/><stop offset="0.49" stop-color="#fff" stop-opacity="0.46"/><stop offset="0.63" stop-color="#fff" stop-opacity="0.34"/><stop offset="0.82" stop-color="#fff" stop-opacity="0.16"/><stop offset="0.97" stop-color="#fff" stop-opacity="0"/></radialGradient></defs><title>icon_4</title><path class="cls-1" d="M22.05,11A11,11,0,1,1,11,0a11,11,0,0,1,11,11"/><ellipse class="cls-2" cx="11.19" cy="10.97" rx="9.11" ry="9.06"/><path class="cls-3" d="M14.37,10.54a3.18,3.18,0,1,0-5.08,2.54,1.11,1.11,0,0,1,.48.89v1.82a.63.63,0,0,0,.64.64H12a.64.64,0,0,0,.65-.64V14a1.08,1.08,0,0,1,.43-.88A3.16,3.16,0,0,0,14.37,10.54Z"/><line class="cls-4" x1="11.19" y1="16.82" x2="11.18" y2="16.82"/><rect class="cls-5" x="9.89" y="13.6" width="2.61" height="2.7"/></svg>