<svg id="Overview" xmlns="http://www.w3.org/2000/svg" viewBox="0 0 30.3 30.3"><defs><style>.cls-1{fill:#e30613;}.cls-2{fill:#222323;}.cls-3,.cls-4{fill:#fff;}.cls-3{stroke:#fff;stroke-miterlimit:10;stroke-width:0.47px;}</style></defs><title>icon_7</title><circle class="cls-1" cx="15.15" cy="15.15" r="15.15"/><g id="_Grupo_" data-name="&lt;Grupo&gt;"><path id="_Trazado_" data-name="&lt;Trazado&gt;" class="cls-2" d="M30.3,15.15A15.15,15.15,0,1,1,15.15,0,15.15,15.15,0,0,1,30.3,15.15Z"/></g><polygon class="cls-3" points="17.12 14.32 19.94 22.13 21.77 18.97 24.93 17.14 17.12 14.32"/><path class="cls-4" d="M12.54,12.69a1.22,1.22,0,0,1,0-2.43,1.22,1.22,0,1,1,0,2.43Z"/><path class="cls-4" d="M6.69,20a1.22,1.22,0,1,1,1.22-1.22A1.22,1.22,0,0,1,6.69,20Z"/><path class="cls-4" d="M17.11,15.94a1.22,1.22,0,1,1,1.22-1.22A1.22,1.22,0,0,1,17.11,15.94Z"/><path class="cls-4" d="M21.26,9.76a1.22,1.22,0,1,1,1.37-1A1.22,1.22,0,0,1,21.26,9.76Z"/><path class="cls-4" d="M11.76,12,7,17.85l.44.36,4.74-5.86A1,1,0,0,1,11.76,12Z"/><path class="cls-4" d="M16.49,14.07l-3.06-2.28a.91.91,0,0,1-.33.44l3.15,2.36A.84.84,0,0,1,16.49,14.07Z"/><path class="cls-4" d="M17.75,14.17l3.56-4.79a.87.87,0,0,1-.45-.33l-3.63,4.89A.94.94,0,0,1,17.75,14.17Z"/></svg>
