<svg id="Overview" xmlns="http://www.w3.org/2000/svg" viewBox="0 0 25.81 12.25"><defs><style>.cls-1{fill:#4dbea2;}</style></defs><title>icon_5</title><path class="cls-1" d="M25.75,1.25a.34.34,0,0,0-.22-.15L18.35,0A.33.33,0,0,0,18,.51L19.64,3,14.35,6.17,10.26,1.91a.33.33,0,0,0-.24-.1.34.34,0,0,0-.24.09L.1,11.68a.34.34,0,0,0,0,.44.35.35,0,0,0,.26.13A.34.34,0,0,0,.5,12.2L8.82,7.14l4.84,5a.33.33,0,0,0,.42,0l8-5.61,1.53,2.18a.34.34,0,0,0,.34.13.32.32,0,0,0,.26-.25L25.8,1.5A.32.32,0,0,0,25.75,1.25Z"/></svg>