<svg id="Overview" xmlns="http://www.w3.org/2000/svg" viewBox="0 0 30.38 30.38">
  <defs>
    <style>.cls-1{fill:#000;}.cls-2{fill:none;stroke:#fff;stroke-linecap:round;stroke-linejoin:round;stroke-width:0.97px;}</style>
  </defs>
  <title>scale_icon_black</title>
  <g id="_Grupo_" data-name="&lt;Grupo&gt;">
    <path id="_Trazado_" data-name="&lt;Trazado&gt;" class="cls-1"
          d="M30.38,15.19A15.19,15.19,0,1,1,15.19,0,15.19,15.19,0,0,1,30.38,15.19Z"/>
  </g>
  <path class="cls-2" d="M17.79,9.4a2.51,2.51,0,1,1-2.5-2.5A2.5,2.5,0,0,1,17.79,9.4Z"/>
  <line class="cls-2" x1="17.79" y1="9.4" x2="21.3" y2="9.4"/>
  <line class="cls-2" x1="9.27" y1="9.4" x2="12.78" y2="9.4"/>
  <polygon class="cls-2" points="21.34 9.4 18.02 17.98 24.39 17.98 21.34 9.4"/>
  <path class="cls-2" d="M21.21,21.49h0A3.19,3.19,0,0,1,18,18.3V18h6.37v.32A3.18,3.18,0,0,1,21.21,21.49Z"/>
  <polygon class="cls-2" points="9.27 9.4 5.94 17.98 12.32 17.98 9.27 9.4"/>
  <path class="cls-2" d="M9.13,21.49h0A3.19,3.19,0,0,1,5.94,18.3V18h6.38v.32A3.19,3.19,0,0,1,9.13,21.49Z"/>
</svg>
