<?xml version="1.0" encoding="utf-8"?>
<!-- Generator: Adobe Illustrator 19.0.0, SVG Export Plug-In . SVG Version: 6.00 Build 0)  -->
<svg version="1.1" id="Layer_1" xmlns="http://www.w3.org/2000/svg" xmlns:xlink="http://www.w3.org/1999/xlink" x="0px" y="0px"
	 viewBox="0 0 206.1 59" style="enable-background:new 0 0 206.1 59;" xml:space="preserve">
<style type="text/css">
	.st0{fill:#9D9D9C;}
	.st1{fill:#FFCC05;}
	.st2{fill:#42B549;}
	.st3{fill:#CA2027;}
	.st4{fill:#575756;}
</style>
<g id="XMLID_1_">
	<path id="XMLID_11_" class="st0" d="M5.8,52.8H2.2l-0.9,3H0L3.3,46h1.4l3.3,9.8H6.8L5.8,52.8z M5.5,51.8L5,50.3
		c-0.3-1.1-0.7-2.2-1-3.3H4c-0.3,1.1-0.6,2.2-1,3.3l-0.5,1.5H5.5z"/>
	<path id="XMLID_19_" class="st0" d="M13.5,56.4v2.5h-1.2V48.5h1l0.1,0.8h0c0.7-0.6,1.5-1,2.3-1c1.9,0,2.9,1.5,2.9,3.7
		c0,2.5-1.5,3.9-3.1,3.9c-0.7,0-1.4-0.3-2-0.8L13.5,56.4z M15.2,55c1.2,0,2.1-1.1,2.1-2.9c0-1.6-0.5-2.7-1.9-2.7c-0.6,0-1.2,0.3-2,1
		v3.8C14.1,54.8,14.8,55,15.2,55z"/>
	<path id="XMLID_22_" class="st0" d="M20.5,48.5h1l0.1,1.3h0c0.5-0.9,1.2-1.5,2.1-1.5c0.3,0,0.5,0,0.8,0.2l-0.2,1.1
		c-0.2-0.1-0.4-0.1-0.7-0.1c-0.6,0-1.3,0.4-1.8,1.7v4.7h-1.2V48.5z"/>
	<path id="XMLID_24_" class="st0" d="M28.5,48.3c1.8,0,3.4,1.4,3.4,3.8c0,2.4-1.6,3.8-3.4,3.8c-1.8,0-3.4-1.4-3.4-3.8
		C25.1,49.7,26.7,48.3,28.5,48.3z M28.5,55c1.3,0,2.1-1.1,2.1-2.8c0-1.7-0.8-2.8-2.1-2.8c-1.2,0-2.1,1.1-2.1,2.8
		C26.4,53.9,27.3,55,28.5,55z"/>
	<path id="XMLID_27_" class="st0" d="M36.4,48.3c0.8,0,1.4,0.3,2,0.8l-0.1-1.2v-2.8h1.2v10.7h-1L38.5,55h0c-0.6,0.6-1.3,1-2.2,1
		c-1.8,0-3-1.4-3-3.8C33.2,49.8,34.7,48.3,36.4,48.3z M36.5,55c0.7,0,1.3-0.3,1.9-1v-3.8c-0.6-0.6-1.2-0.8-1.8-0.8
		c-1.2,0-2.1,1.1-2.1,2.8C34.5,53.9,35.2,55,36.5,55z"/>
	<path id="XMLID_30_" class="st0" d="M41.9,48.5h1.2V53c0,1.4,0.4,2,1.4,2c0.8,0,1.3-0.4,2-1.2v-5.2h1.2v7.3h-1l-0.1-1.1h0
		c-0.7,0.8-1.4,1.3-2.4,1.3c-1.5,0-2.2-1-2.2-2.8V48.5z"/>
	<path id="XMLID_32_" class="st0" d="M53.1,48.3c1,0,1.6,0.4,2.1,0.9L54.6,50c-0.4-0.4-0.9-0.6-1.5-0.6c-1.3,0-2.3,1.1-2.3,2.8
		c0,1.7,0.9,2.8,2.2,2.8c0.7,0,1.3-0.3,1.7-0.7l0.6,0.8C54.7,55.6,53.9,56,53,56c-1.9,0-3.4-1.4-3.4-3.8
		C49.6,49.7,51.2,48.3,53.1,48.3z"/>
	<path id="XMLID_34_" class="st0" d="M57.1,49.5h-1.1v-0.9l1.1-0.1l0.2-2h1v2h2v1h-2v4c0,0.9,0.3,1.4,1.1,1.4c0.3,0,0.6-0.1,0.8-0.2
		l0.2,0.9c-0.4,0.1-0.9,0.3-1.4,0.3c-1.6,0-2.1-1-2.1-2.4V49.5z"/>
	<path id="XMLID_36_" class="st0" d="M67.8,48.3c1.8,0,3.4,1.4,3.4,3.8c0,2.4-1.6,3.8-3.4,3.8c-1.8,0-3.4-1.4-3.4-3.8
		C64.4,49.7,66,48.3,67.8,48.3z M67.8,55c1.3,0,2.1-1.1,2.1-2.8c0-1.7-0.8-2.8-2.1-2.8c-1.2,0-2.1,1.1-2.1,2.8
		C65.7,53.9,66.5,55,67.8,55z"/>
	<path id="XMLID_39_" class="st0" d="M76.3,46.1C76,46,75.7,46,75.5,46c-0.7,0-1,0.5-1,1.4v1.2H76v1h-1.5v6.3h-1.2v-6.3h-1v-0.9
		l1-0.1v-1.2c0-1.5,0.7-2.4,2.1-2.4c0.4,0,0.9,0.1,1.2,0.2L76.3,46.1z"/>
	<path id="XMLID_41_" class="st0" d="M80.4,46h1.3v8.8H86v1.1h-5.5V46z"/>
	<path id="XMLID_43_" class="st0" d="M90.3,48.3c1.8,0,3.4,1.4,3.4,3.8c0,2.4-1.6,3.8-3.4,3.8c-1.8,0-3.4-1.4-3.4-3.8
		C87,49.7,88.6,48.3,90.3,48.3z M90.3,55c1.3,0,2.1-1.1,2.1-2.8c0-1.7-0.8-2.8-2.1-2.8c-1.2,0-2.1,1.1-2.1,2.8
		C88.2,53.9,89.1,55,90.3,55z"/>
	<path id="XMLID_46_" class="st0" d="M94.5,48.5h1.3l1.4,4.1c0.2,0.7,0.5,1.5,0.7,2.1h0.1c0.2-0.7,0.4-1.4,0.7-2.1l1.4-4.1h1.2
		l-2.6,7.3h-1.4L94.5,48.5z"/>
	<path id="XMLID_48_" class="st0" d="M105.3,48.3c1.9,0,2.9,1.3,2.9,3.4c0,0.3,0,0.5,0,0.7h-4.9c0.1,1.6,1,2.6,2.4,2.6
		c0.7,0,1.3-0.2,1.8-0.6l0.4,0.8c-0.6,0.4-1.4,0.8-2.4,0.8c-1.9,0-3.5-1.4-3.5-3.8S103.6,48.3,105.3,48.3z M107.1,51.6
		c0-1.5-0.7-2.3-1.8-2.3c-1,0-2,0.8-2.1,2.3H107.1z"/>
	<path id="XMLID_51_" class="st0" d="M109.9,48.5h1l0.1,1h0c0.7-0.7,1.4-1.2,2.4-1.2c1.5,0,2.2,1,2.2,2.8v4.6h-1.2v-4.5
		c0-1.4-0.4-1.9-1.4-1.9c-0.8,0-1.3,0.4-2,1.1v5.3h-1.2V48.5z"/>
	<path id="XMLID_53_" class="st0" d="M121.2,53.7c0.7,0.7,1.7,1.2,2.7,1.2c1.3,0,2.1-0.6,2.1-1.6c0-1-0.7-1.3-1.7-1.7l-1.4-0.6
		c-0.9-0.4-2-1.1-2-2.5c0-1.5,1.3-2.6,3.1-2.6c1.2,0,2.2,0.5,2.9,1.2l-0.7,0.8c-0.6-0.6-1.3-0.9-2.2-0.9c-1.1,0-1.8,0.6-1.8,1.4
		c0,0.9,0.9,1.3,1.6,1.6l1.4,0.6c1.1,0.5,2,1.2,2,2.6c0,1.6-1.3,2.8-3.4,2.8c-1.4,0-2.6-0.6-3.4-1.5L121.2,53.7z"/>
	<path id="XMLID_55_" class="st0" d="M129,57.9c0.8,0,1.3-0.7,1.6-1.6l0.2-0.5l-2.9-7.3h1.3l1.5,4c0.2,0.6,0.5,1.4,0.7,2.1h0.1
		c0.2-0.7,0.4-1.4,0.6-2.1l1.3-4h1.2l-2.7,7.9c-0.5,1.4-1.3,2.5-2.7,2.5c-0.3,0-0.6-0.1-0.9-0.1l0.2-1
		C128.6,57.9,128.8,57.9,129,57.9z"/>
	<path id="XMLID_57_" class="st0" d="M135.7,54.2c0.6,0.5,1.3,0.9,2.1,0.9c1,0,1.4-0.5,1.4-1.1c0-0.8-0.9-1.1-1.7-1.4
		c-1-0.4-2.2-0.9-2.2-2.1c0-1.2,0.9-2.1,2.5-2.1c0.9,0,1.7,0.4,2.3,0.8l-0.6,0.8c-0.5-0.4-1-0.6-1.7-0.6c-0.9,0-1.3,0.5-1.3,1
		c0,0.7,0.8,0.9,1.6,1.3c1,0.4,2.2,0.8,2.2,2.2c0,1.2-0.9,2.2-2.7,2.2c-1,0-2-0.4-2.7-1L135.7,54.2z"/>
	<path id="XMLID_59_" class="st0" d="M142.4,49.5h-1.1v-0.9l1.1-0.1l0.2-2h1v2h2v1h-2v4c0,0.9,0.3,1.4,1.1,1.4
		c0.3,0,0.6-0.1,0.8-0.2l0.2,0.9c-0.4,0.1-0.9,0.3-1.4,0.3c-1.6,0-2.1-1-2.1-2.4V49.5z"/>
	<path id="XMLID_61_" class="st0" d="M149.9,48.3c1.9,0,2.9,1.3,2.9,3.4c0,0.3,0,0.5,0,0.7h-4.9c0.1,1.6,1,2.6,2.4,2.6
		c0.7,0,1.3-0.2,1.8-0.6l0.4,0.8c-0.6,0.4-1.4,0.8-2.4,0.8c-1.9,0-3.5-1.4-3.5-3.8S148.3,48.3,149.9,48.3z M151.8,51.6
		c0-1.5-0.7-2.3-1.8-2.3c-1,0-2,0.8-2.1,2.3H151.8z"/>
	<path id="XMLID_64_" class="st0" d="M154.6,48.5h1l0.1,1h0c0.6-0.7,1.4-1.2,2.3-1.2c1.1,0,1.7,0.5,2,1.4c0.8-0.8,1.5-1.4,2.4-1.4
		c1.5,0,2.2,1,2.2,2.8v4.6h-1.2v-4.5c0-1.4-0.4-1.9-1.3-1.9c-0.6,0-1.2,0.4-1.8,1.1v5.3H159v-4.5c0-1.4-0.4-1.9-1.4-1.9
		c-0.5,0-1.2,0.4-1.8,1.1v5.3h-1.2V48.5z"/>
	<path id="XMLID_66_" class="st0" d="M166.8,54.2c0.6,0.5,1.3,0.9,2.1,0.9c1,0,1.4-0.5,1.4-1.1c0-0.8-0.9-1.1-1.7-1.4
		c-1-0.4-2.2-0.9-2.2-2.1c0-1.2,0.9-2.1,2.5-2.1c0.9,0,1.7,0.4,2.3,0.8l-0.6,0.8c-0.5-0.4-1-0.6-1.7-0.6c-0.9,0-1.3,0.5-1.3,1
		c0,0.7,0.8,0.9,1.6,1.3c1,0.4,2.2,0.8,2.2,2.2c0,1.2-0.9,2.2-2.7,2.2c-1,0-2-0.4-2.7-1L166.8,54.2z"/>
	<path id="XMLID_68_" class="st0" d="M172.7,57.6c0.8-0.4,1.3-1,1.3-1.8c0,0-0.1,0-0.1,0c-0.5,0-0.9-0.3-0.9-0.9
		c0-0.5,0.4-0.9,0.9-0.9c0.6,0,1,0.6,1,1.5c0,1.3-0.8,2.3-2,2.8L172.7,57.6z"/>
	<path id="XMLID_70_" class="st0" d="M180,46h1.3v8.8h4.3v1.1H180V46z"/>
	<path id="XMLID_72_" class="st0" d="M187.1,46h1.3v8.8h4.3v1.1h-5.5V46z"/>
	<path id="XMLID_74_" class="st0" d="M198.1,45.8c1.2,0,2.1,0.6,2.7,1.2l-0.7,0.8c-0.5-0.6-1.2-0.9-2-0.9c-1.9,0-3.1,1.5-3.1,4
		c0,2.5,1.2,4,3.1,4c0.9,0,1.6-0.4,2.2-1.1l0.7,0.8c-0.8,0.9-1.7,1.4-3,1.4c-2.5,0-4.3-1.9-4.3-5.1
		C193.7,47.7,195.6,45.8,198.1,45.8z"/>
</g>
<g>
	<path class="st1" d="M185.8,2.4h10.3v10.3h-10.3V2.4z M198.6,0h-15.1v15.1h15.1V0z"/>
</g>
<g>
	<path class="st2" d="M174.2,11.3c0-1.3,0.5-2.5,1.4-3.4c0.9-0.9,2.1-1.4,3.4-1.4h8.4c2.7,0,4.8,2.2,4.8,4.8v8.4
		c0,2.7-2.2,4.8-4.8,4.8h-8.4c-2.7,0-4.8-2.2-4.8-4.8V11.3 M187.5,22.1c0.7,0,1.3-0.3,1.7-0.7c0.4-0.4,0.7-1.1,0.7-1.7v-8.4
		c0-1.3-1.1-2.4-2.4-2.4h-8.4c-1.3,0-2.4,1.1-2.4,2.4v8.4c0,1.3,1.1,2.4,2.4,2.4H187.5"/>
</g>
<g>
	<path class="st3" d="M181,30.1c-1.6,1.6-3.8,2.6-6.3,2.6c-4.9,0-8.9-4-8.9-8.9c0-2.4,1-4.7,2.6-6.3c1.6-1.6,3.8-2.6,6.3-2.6
		c4.9,0,8.9,4,8.9,8.9C183.6,26.3,182.6,28.5,181,30.1 M182.7,31.8c1-1,1.8-2.2,2.4-3.6c0.6-1.4,0.9-2.9,0.9-4.4
		c0-1.5-0.3-3-0.9-4.4c-0.6-1.3-1.4-2.5-2.4-3.6c-1-1-2.2-1.8-3.6-2.4c-1.4-0.6-2.9-0.9-4.4-0.9c-1.5,0-3,0.3-4.4,0.9
		c-1.3,0.6-2.5,1.4-3.6,2.4c-1,1-1.8,2.2-2.4,3.6c-0.6,1.4-0.9,2.9-0.9,4.4c0,1.5,0.3,3,0.9,4.4c0.6,1.3,1.4,2.5,2.4,3.6
		c1,1,2.2,1.8,3.6,2.4c1.4,0.6,2.9,0.9,4.4,0.9c1.5,0,3-0.3,4.4-0.9C180.5,33.7,181.7,32.8,182.7,31.8"/>
</g>
<g>
	<path d="M117.1,0.5h2.8v31.6c-2.5,1.9-5.7,2.8-8.7,2.8c-5.8,0-11.3-3.4-11.3-10.6c0-6.8,4.4-11.3,10.7-11.3c2.4,0,4.9,0.8,6.5,2.2
		V0.5z M117.1,18.5c-1.1-1.7-3.8-3-6.4-3c-4.7,0-7.7,3.3-7.7,8.8c0,5.4,3.9,8.2,8.3,8.2c1.7,0,3.9-0.4,5.8-1.8V18.5z"/>
</g>
<g>
	<path id="XMLID_13_" d="M111.3,35.1c-5.7,0-11.5-3.3-11.5-10.8c0-6.9,4.4-11.5,10.9-11.5c2.3,0,4.7,0.8,6.3,2V0.3h3.3v31.9
		l-0.1,0.1C117.6,34.1,114.5,35.1,111.3,35.1z M110.7,13.3c-6.2,0-10.4,4.4-10.4,11c0,7.2,5.6,10.4,11.1,10.4c3.1,0,6.1-1,8.5-2.7
		V0.7h-2.4v15.1l-0.4-0.3C115.5,14.1,113,13.3,110.7,13.3z M111.3,32.7c-5.9,0-8.5-4.2-8.5-8.4c0-5.5,3-9,7.9-9
		c2.8,0,5.5,1.3,6.6,3.1l0,0.1v12.3l-0.1,0.1C115,32.4,112.6,32.7,111.3,32.7z M110.7,15.8c-4.6,0-7.5,3.3-7.5,8.5
		c0,5.5,4.1,7.9,8.1,7.9c1.2,0,3.5-0.2,5.6-1.7v-12C115.9,16.9,113.3,15.8,110.7,15.8z"/>
</g>
<g>
	<rect x="125.6" y="13.6" width="2.8" height="20.7"/>
</g>
<g>
	<path id="XMLID_8_" d="M128.6,34.6h-3.3V13.4h3.3V34.6z M125.8,34.1h2.4V13.8h-2.4V34.1z"/>
</g>
<g>
	<polygon points="153.4,35.1 147.3,19.5 141.2,35.1 140.4,35.1 132,13.6 135.2,13.6 141.1,29.1 147.2,13 147.5,13 153.6,29.1 
		159.6,13.6 162.6,13.6 154.2,35.1 	"/>
</g>
<g>
	<path id="XMLID_5_" d="M154.3,35.3h-1.1l-0.1-0.1l-5.9-15.1l-5.9,15.2h-1.1l-0.1-0.1l-8.5-21.8h3.6l0.1,0.1l5.7,15l6-15.7h0.6
		l0.1,0.1l5.9,15.6l5.8-15.1h3.5L154.3,35.3z M153.6,34.9h0.5l8.2-21h-2.5l-6.1,15.9l-6.2-16.5l-6.3,16.5L135,13.8h-2.6l8.2,21h0.5
		l6.2-16L153.6,34.9z"/>
</g>
<g>
	<path d="M127,9.5c-1.2,0-2.1-0.9-2.1-2.1c0-1.3,1-2.1,2.1-2.1c1.2,0,2.1,0.9,2.1,2.1C129.1,8.6,128.2,9.5,127,9.5"/>
</g>
<g>
	<path id="XMLID_2_" d="M127,9.7c-1.3,0-2.3-1-2.3-2.3c0-1.3,1-2.4,2.3-2.4c1.3,0,2.3,1,2.3,2.4C129.4,8.7,128.3,9.7,127,9.7z
		 M127,5.5c-1.1,0-1.9,0.8-1.9,1.9c0,1,0.8,1.8,1.9,1.8c1.1,0,1.9-0.8,1.9-1.8C128.9,6.3,128.2,5.5,127,5.5z"/>
</g>
<g>
	<path class="st4" d="M203,2.1c0-0.8,0.7-1.5,1.5-1.5c0.8,0,1.5,0.7,1.5,1.5c0,0.8-0.7,1.5-1.5,1.5C203.7,3.6,203,2.9,203,2.1
		 M205.8,2.1c0-0.7-0.6-1.3-1.3-1.3c-0.7,0-1.3,0.6-1.3,1.3c0,0.7,0.6,1.3,1.3,1.3C205.2,3.4,205.8,2.8,205.8,2.1 M205,2.9l-0.7-0.7
		l-0.1-0.1v0.8H204V1.2h0.4c0.4,0,0.7,0.1,0.7,0.5c0,0.3-0.2,0.5-0.6,0.5l0.8,0.7H205z M204.4,2c0.3,0,0.5-0.1,0.5-0.3
		c0-0.2-0.2-0.3-0.4-0.3h-0.2V2H204.4z"/>
</g>
</svg>
