<?xml version="1.0" encoding="utf-8"?>
<!-- Generator: Adobe Illustrator 19.0.0, SVG Export Plug-In . SVG Version: 6.00 Build 0)  -->
<svg version="1.1" id="Layer_1" xmlns="http://www.w3.org/2000/svg" xmlns:xlink="http://www.w3.org/1999/xlink" x="0px" y="0px"
	 viewBox="0 0 51.8 19" style="enable-background:new 0 0 51.8 19;" xml:space="preserve">
<style type="text/css">
	.st0{fill:#FFCB02;}
	.st1{fill:#42B349;}
	.st2{fill:#C92027;stroke:#C92027;stroke-width:0.3005;stroke-miterlimit:10;}
	.st3{fill:#FFFFFF;stroke:#FFFFFF;stroke-width:0.2544;stroke-miterlimit:10;}
</style>
<g>
	<g id="XMLID_57_">
		<path id="XMLID_341_" class="st0" d="M45,6.8V1.3h5.5v5.5H45z M51.8,0h-8.1v8.1h8.1V0z"/>
		<path id="XMLID_337_" class="st1" d="M38.8,6c0-0.7,0.3-1.4,0.8-1.8c0.5-0.5,1.1-0.8,1.8-0.8h4.5c1.4,0,2.6,1.2,2.6,2.6v4.5
			c0,1.4-1.2,2.6-2.6,2.6h-4.5c-1.4,0-2.6-1.2-2.6-2.6V6 M45.9,11.8c0.4,0,0.7-0.1,0.9-0.4c0.2-0.2,0.4-0.6,0.4-0.9V6
			c0-0.7-0.6-1.3-1.3-1.3h-4.5c-0.7,0-1.3,0.6-1.3,1.3v4.5c0,0.7,0.6,1.3,1.3,1.3H45.9"/>
		<path id="XMLID_208_" class="st2" d="M42.4,16.2c-0.9,0.9-2,1.4-3.4,1.4c-2.6,0-4.8-2.1-4.8-4.8c0-1.3,0.5-2.5,1.4-3.4
			c0.9-0.9,2-1.4,3.4-1.4c2.6,0,4.8,2.1,4.8,4.8C43.8,14.1,43.3,15.3,42.4,16.2 M43.3,17.1c0.6-0.6,1-1.2,1.3-1.9
			c0.3-0.7,0.5-1.5,0.5-2.4c0-0.8-0.2-1.6-0.5-2.4c-0.3-0.7-0.7-1.4-1.3-1.9c-0.6-0.6-1.2-1-1.9-1.3c-0.7-0.3-1.5-0.5-2.4-0.5
			c-0.8,0-1.6,0.2-2.4,0.5C36,7.5,35.3,8,34.8,8.5c-0.6,0.6-1,1.2-1.3,1.9C33.2,11.2,33,12,33,12.8c0,0.8,0.2,1.6,0.5,2.4
			c0.3,0.7,0.7,1.4,1.3,1.9c0.6,0.6,1.2,1,1.9,1.3c0.7,0.3,1.5,0.5,2.4,0.5c0.8,0,1.6-0.2,2.4-0.5C42.1,18.1,42.8,17.6,43.3,17.1"/>
		<path id="XMLID_125_" class="st3" d="M9,0.6h1.5V17c-1.3,1-2.9,1.5-4.5,1.5c-3,0-5.9-1.8-5.9-5.5c0-3.5,2.3-5.8,5.5-5.8
			c1.2,0,2.5,0.4,3.4,1.2V0.6z M9,9.9C8.4,9,7.1,8.4,5.7,8.4c-2.4,0-4,1.7-4,4.5c0,2.8,2,4.2,4.3,4.2c0.9,0,2-0.2,3-0.9V9.9z"/>
		<rect id="XMLID_120_" x="13.4" y="7.4" class="st3" width="1.5" height="10.7"/>
		<polygon id="XMLID_114_" class="st3" points="27.8,18.5 24.6,10.4 21.5,18.5 21.1,18.5 16.7,7.4 18.3,7.4 21.4,15.4 24.6,7.1 
			24.7,7.1 27.9,15.4 31,7.4 32.5,7.4 28.2,18.5 		"/>
		<path id="XMLID_113_" class="st3" d="M14.1,5.2c-0.6,0-1.1-0.5-1.1-1.1c0-0.7,0.5-1.1,1.1-1.1c0.6,0,1.1,0.5,1.1,1.1
			C15.2,4.8,14.8,5.2,14.1,5.2"/>
	</g>
</g>
</svg>
